<?xml version="1.0" encoding="UTF-8" standalone="no"?>
<svg
   xmlns:dc="http://purl.org/dc/elements/1.1/"
   xmlns:cc="http://creativecommons.org/ns#"
   xmlns:rdf="http://www.w3.org/1999/02/22-rdf-syntax-ns#"
   xmlns:svg="http://www.w3.org/2000/svg"
   xmlns="http://www.w3.org/2000/svg"
   xmlns:sodipodi="http://sodipodi.sourceforge.net/DTD/sodipodi-0.dtd"
   xmlns:inkscape="http://www.inkscape.org/namespaces/inkscape"
   viewBox="0 0 16 16"
   version="1.1"
   id="svg27"
   sodipodi:docname="phonelink-delete-symbolic2.svg"
   inkscape:version="0.92.3 (2405546, 2018-03-11)">
  <metadata
     id="metadata33">
    <rdf:RDF>
      <cc:Work
         rdf:about="">
        <dc:format>image/svg+xml</dc:format>
        <dc:type
           rdf:resource="http://purl.org/dc/dcmitype/StillImage" />
      </cc:Work>
    </rdf:RDF>
  </metadata>
  <defs
     id="defs31" />
  <sodipodi:namedview
     pagecolor="#ffffff"
     bordercolor="#666666"
     borderopacity="1"
     objecttolerance="10"
     gridtolerance="10"
     guidetolerance="10"
     inkscape:pageopacity="0"
     inkscape:pageshadow="2"
     inkscape:window-width="1720"
     inkscape:window-height="1353"
     id="namedview29"
     showgrid="false"
     inkscape:zoom="8"
     inkscape:cx="8.2033898"
     inkscape:cy="8"
     inkscape:window-x="1720"
     inkscape:window-y="0"
     inkscape:window-maximized="0"
     inkscape:current-layer="svg27" />
  <path
     style="fill:#2e3436;opacity:1;fill-opacity:1;stroke:none;fill-rule:nonzero"
     d="M 4 0 C 3.446 0 3 0.446 3 1 L 3 6 L 5 6 L 5 2 L 11 2 L 11 13 L 7 13 L 5 13 L 3 13 L 3 15 C 3 15.554 3.446 16 4 16 L 12 16 C 12.554 16 13 15.554 13 15 L 13 1 C 13 0.446 12.554 0 12 0 L 4 0 z "
     id="path25" />
  <path
     inkscape:connector-curvature="0"
     style="color:#bebebe;display:inline;overflow:visible;visibility:visible;fill:#2e3436;fill-opacity:1;stroke:none;stroke-width:2;marker:none;enable-background:new"
     id="path3761-2-3-5-4-8-9-8-0-1-7"
     d="M 1,7 H 2.375 L 3.5,8.09375 4.59375,7 H 6.0000002 V 8.46875 L 4.90625,9.53125 6.0000002,10.59375 V 12 H 4.5625 L 3.5,10.9375 2.4375,12 H 1 V 10.59375 L 2.0625,9.53125 1,8.46875 Z" />
</svg>
