<?xml version="1.0" encoding="UTF-8" standalone="no"?>
<svg
   xmlns:dc="http://purl.org/dc/elements/1.1/"
   xmlns:cc="http://creativecommons.org/ns#"
   xmlns:rdf="http://www.w3.org/1999/02/22-rdf-syntax-ns#"
   xmlns:svg="http://www.w3.org/2000/svg"
   xmlns="http://www.w3.org/2000/svg"
   xmlns:sodipodi="http://sodipodi.sourceforge.net/DTD/sodipodi-0.dtd"
   xmlns:inkscape="http://www.inkscape.org/namespaces/inkscape"
   viewBox="0 0 16 16"
   version="1.1"
   id="svg27"
   sodipodi:docname="phonelink-ring-symbolic2.svg"
   inkscape:version="0.92.3 (2405546, 2018-03-11)">
  <metadata
     id="metadata33">
    <rdf:RDF>
      <cc:Work
         rdf:about="">
        <dc:format>image/svg+xml</dc:format>
        <dc:type
           rdf:resource="http://purl.org/dc/dcmitype/StillImage" />
      </cc:Work>
    </rdf:RDF>
  </metadata>
  <defs
     id="defs31" />
  <sodipodi:namedview
     pagecolor="#ffffff"
     bordercolor="#666666"
     borderopacity="1"
     objecttolerance="10"
     gridtolerance="10"
     guidetolerance="10"
     inkscape:pageopacity="0"
     inkscape:pageshadow="2"
     inkscape:window-width="1720"
     inkscape:window-height="1353"
     id="namedview29"
     showgrid="false"
     inkscape:zoom="45.254834"
     inkscape:cx="15.357938"
     inkscape:cy="9.767767"
     inkscape:window-x="1720"
     inkscape:window-y="0"
     inkscape:window-maximized="0"
     inkscape:current-layer="svg27" />
  <path
     style="opacity:1;fill:#2e3436;fill-opacity:1;fill-rule:nonzero;stroke:none"
     d="M 4 0 C 3.446 0 3 0.446 3 1 L 3 15 C 3 15.554 3.446 16 4 16 L 12 16 C 12.554 16 13 15.554 13 15 L 13 14 L 12 14 L 12 12 L 11 12 L 11 13 L 5 13 L 5 2 L 11 2 L 11 4 L 12 4 L 12 2 L 13 2 L 13 1 C 13 0.446 12.554 -2.9605947e-16 12 0 L 4 0 z "
     id="path2" />
  <path
     inkscape:connector-curvature="0"
     style="color:#000000;display:inline;overflow:visible;visibility:visible;fill:#2e3436;fill-opacity:1;fill-rule:nonzero;stroke:none;stroke-width:1;stroke-linecap:round;stroke-linejoin:round;stroke-miterlimit:4;stroke-dasharray:none;stroke-dashoffset:0;stroke-opacity:0;marker:none;enable-background:accumulate"
     id="rect11703-1-6"
     d="M 16,8 C 16,5.83336 15.26122,3.98018 14,3 h -1 v 2 c 0.60652,0.78878 1,1.75887 1,3 0,1.24113 -0.39348,2.21938 -1,3 v 2 h 1 c 1.2229,-0.99478 2,-2.8734 2,-5 z" />
  <path
     inkscape:connector-curvature="0"
     style="color:#000000;font-style:normal;font-variant:normal;font-weight:normal;font-stretch:normal;font-size:medium;line-height:normal;font-family:Sans;-inkscape-font-specification:Sans;text-indent:0;text-align:start;text-decoration:none;text-decoration-line:none;letter-spacing:normal;word-spacing:normal;text-transform:none;writing-mode:lr-tb;direction:ltr;baseline-shift:baseline;text-anchor:start;display:inline;overflow:visible;visibility:visible;fill:#2e3436;fill-opacity:1;stroke:none;stroke-width:2.32782054;marker:none;enable-background:accumulate"
     mask="none"
     id="path6297-6-8"
     d="M 13,8 C 13,6.74267 12.68835,5.78429 12,5 h -1 v 6 h 1 c 0.67206,-0.8369 1,-1.74267 1,-3 z"
     clip-path="none" />
</svg>
