<?xml version="1.0" encoding="UTF-8" standalone="no"?>
<svg
   xmlns:dc="http://purl.org/dc/elements/1.1/"
   xmlns:cc="http://creativecommons.org/ns#"
   xmlns:rdf="http://www.w3.org/1999/02/22-rdf-syntax-ns#"
   xmlns:svg="http://www.w3.org/2000/svg"
   xmlns="http://www.w3.org/2000/svg"
   xmlns:sodipodi="http://sodipodi.sourceforge.net/DTD/sodipodi-0.dtd"
   xmlns:inkscape="http://www.inkscape.org/namespaces/inkscape"
   viewBox="0 0 16 16"
   version="1.1"
   id="svg27"
   sodipodi:docname="phonelink-lock-symbolic2.svg"
   inkscape:version="0.92.3 (2405546, 2018-03-11)">
  <metadata
     id="metadata33">
    <rdf:RDF>
      <cc:Work
         rdf:about="">
        <dc:format>image/svg+xml</dc:format>
        <dc:type
           rdf:resource="http://purl.org/dc/dcmitype/StillImage" />
      </cc:Work>
    </rdf:RDF>
  </metadata>
  <defs
     id="defs31" />
  <sodipodi:namedview
     pagecolor="#ffffff"
     bordercolor="#666666"
     borderopacity="1"
     objecttolerance="10"
     gridtolerance="10"
     guidetolerance="10"
     inkscape:pageopacity="0"
     inkscape:pageshadow="2"
     inkscape:window-width="1720"
     inkscape:window-height="1353"
     id="namedview29"
     showgrid="false"
     inkscape:zoom="22.627417"
     inkscape:cx="15.177686"
     inkscape:cy="9.767767"
     inkscape:window-x="1720"
     inkscape:window-y="0"
     inkscape:window-maximized="0"
     inkscape:current-layer="svg27" />
  <path
     style="fill:#2e3436;opacity:1;fill-opacity:1;stroke:none;fill-rule:nonzero"
     d="M 4 0 C 3.446 0 3 0.446 3 1 L 3 5 L 5 5 L 5 2 L 11 2 L 11 13 L 7 13 L 5 13 L 3 13 L 3 15 C 3 15.554 3.446 16 4 16 L 12 16 C 12.554 16 13 15.554 13 15 L 13 1 C 13 0.446 12.554 0 12 0 L 4 0 z "
     id="path25" />
  <path
     inkscape:connector-curvature="0"
     style="display:inline;opacity:1;vector-effect:none;fill:#2e3436;fill-opacity:1;fill-rule:nonzero;stroke:none;stroke-width:21.90890312;stroke-linecap:butt;stroke-linejoin:miter;stroke-miterlimit:4;stroke-dasharray:none;stroke-dashoffset:0;stroke-opacity:1;marker:none;marker-start:none;marker-mid:none;marker-end:none;paint-order:normal"
     id="rect9382"
     d="M 4,6 C 2.90135,6 2,6.90135 2,8 V 9 H 1.54688 C 1.23399,9 1,9.17178 1,9.5 V 12 H 7 V 9.5 C 7,9.24219 6.79001,9 6.5,9 H 6 V 8 C 6,6.90135 5.09865,6 4,6 Z M 4,7 C 4.55821,7 5,7.44179 5,8 V 9 H 3 V 8 C 3,7.44179 3.44179,7 4,7 Z" />
</svg>
