<?xml version="1.0" encoding="UTF-8" standalone="no"?>
<svg
   xmlns:dc="http://purl.org/dc/elements/1.1/"
   xmlns:cc="http://creativecommons.org/ns#"
   xmlns:rdf="http://www.w3.org/1999/02/22-rdf-syntax-ns#"
   xmlns:svg="http://www.w3.org/2000/svg"
   xmlns="http://www.w3.org/2000/svg"
   xmlns:sodipodi="http://sodipodi.sourceforge.net/DTD/sodipodi-0.dtd"
   xmlns:inkscape="http://www.inkscape.org/namespaces/inkscape"
   viewBox="0 0 16 16"
   version="1.1"
   id="svg28"
   sodipodi:docname="phonelink-off-symbolic2.svg"
   inkscape:version="0.92.3 (2405546, 2018-03-11)">
  <metadata
     id="metadata34">
    <rdf:RDF>
      <cc:Work
         rdf:about="">
        <dc:format>image/svg+xml</dc:format>
        <dc:type
           rdf:resource="http://purl.org/dc/dcmitype/StillImage" />
      </cc:Work>
    </rdf:RDF>
  </metadata>
  <defs
     id="defs32" />
  <sodipodi:namedview
     pagecolor="#ffffff"
     bordercolor="#666666"
     borderopacity="1"
     objecttolerance="10"
     gridtolerance="10"
     guidetolerance="10"
     inkscape:pageopacity="0"
     inkscape:pageshadow="2"
     inkscape:window-width="1720"
     inkscape:window-height="1353"
     id="namedview30"
     showgrid="false"
     inkscape:zoom="14.75"
     inkscape:cx="32.610169"
     inkscape:cy="10.711864"
     inkscape:window-x="1720"
     inkscape:window-y="0"
     inkscape:window-maximized="0"
     inkscape:current-layer="svg28" />
  <path
     style="fill:#2e3436"
     d="M 4.9960938,1.9980469 6.9980469,4 H 15 V 2 Z m -2.109375,0.013672 C 1.9253835,2.0841664 1,3.0384019 1,4 v 8 H 0 v 2 H 9 V 12 H 3 V 4 h 1.875 z"
     id="path26"
     inkscape:connector-curvature="0"
     sodipodi:nodetypes="ccccccsccccccccc" />
  <path
     inkscape:connector-curvature="0"
     style="fill:#2e3436;fill-opacity:1;stroke:none"
     id="path3849-0"
     d="m 1.499,0.5009996 -1.061,1.061 L 14.438,15.562 15.5,14.5 Z" />
  <path
     id="path1443"
     d="m 12,6 c -0.5,0 -1,0.5 -1,1 v 1.0019531 l 1,1 V 7 h 3 v 5 l 1,1 V 7 C 16,6.5 15.5,6 15,6 Z m -1,4.125 V 13 c 0,0.5 0.5,1 1,1 h 2.875 l -2,-2 H 12 v -0.875 z"
     style="fill:#2e3436;opacity:0.5"
     inkscape:connector-curvature="0"
     sodipodi:nodetypes="ssccccccssscssccccc" />
</svg>
