<?xml version="1.0" encoding="UTF-8" standalone="no"?>
<svg
   xmlns:dc="http://purl.org/dc/elements/1.1/"
   xmlns:cc="http://creativecommons.org/ns#"
   xmlns:rdf="http://www.w3.org/1999/02/22-rdf-syntax-ns#"
   xmlns:svg="http://www.w3.org/2000/svg"
   xmlns="http://www.w3.org/2000/svg"
   id="svg20"
   version="1.1"
   viewBox="0 0 32 32"
   height="32px"
   width="32px">
  <metadata
     id="metadata26">
    <rdf:RDF>
      <cc:Work
         rdf:about="">
        <dc:format>image/svg+xml</dc:format>
        <dc:type
           rdf:resource="http://purl.org/dc/dcmitype/StillImage" />
        <dc:title></dc:title>
      </cc:Work>
    </rdf:RDF>
  </metadata>
  <defs
     id="defs24">
    <filter
       height="1.048"
       y="-0.024"
       width="1.048"
       x="-0.024"
       id="filter4415"
       style="color-interpolation-filters:sRGB">
      <feGaussianBlur
         id="feGaussianBlur4417"
         stdDeviation="4.48" />
    </filter>
  </defs>
  <rect
     transform="matrix(0,-0.0625,-0.0625,0,-13,14.328)"
     style="display:inline;opacity:0.1;fill:#000000;fill-opacity:1;stroke:#000000;stroke-width:8;stroke-miterlimit:4;stroke-dasharray:none;stroke-opacity:1;filter:url(#filter4415);enable-background:new"
     id="rect1048"
     width="448"
     height="448"
     x="-256"
     y="-688"
     rx="36"
     ry="36" />
  <rect
     ry="3"
     rx="3"
     y="-30"
     x="-29.999998"
     height="28"
     width="28"
     id="rect4255"
     style="display:inline;fill:#15a6f0;fill-opacity:1;stroke:none;enable-background:new"
     transform="matrix(0,-1,-1,0,0,0)" />
  <path
     id="rect4430"
     d="m 5.0000001,2.0000001 c -1.662,0 -3,1.338 -3,3 v 0.9999996 c 0,-1.6619996 1.338,-2.9999996 3,-2.9999996 H 27 c 1.662,0 3,1.338 3,2.9999996 V 5.0000001 c 0,-1.662 -1.338,-3 -3,-3 z"
     style="display:inline;opacity:0.2;fill:#ffffff;fill-opacity:1;stroke:none;enable-background:new" />
  <path
     id="path1063"
     style="display:inline;fill:#ffffff;stroke-width:1.00000012;enable-background:new"
     d="m 11,12.00024 h 12 v -2 L 11.0013,9.9994997 C 10,9.9991097 9.0000001,11.00051 9.0000001,12.0005 v 8.00001 h -1 v 2 H 17 v -2 h -6 z m 12,2 h -3 c -0.5,0 -1,0.5 -1,1 v 6.00002 c 0,0.49998 0.5,0.99998 1,0.99998 h 3 c 0.5,0 1,-0.5 1,-0.99998 v -6.00002 c 0,-0.5 -0.5,-1 -1,-1 z m 0,6.00002 h -3 v -5.00002 h 3 z" />
</svg>
